<?xml version="1.0" encoding="iso-8859-1"?>
<!-- Generator: Adobe Illustrator 19.0.0, SVG Export Plug-In . SVG Version: 6.00 Build 0)  -->
<svg version="1.1" id="Layer_1" xmlns="http://www.w3.org/2000/svg" xmlns:xlink="http://www.w3.org/1999/xlink" x="0px" y="0px"
	 viewBox="0 0 512 512" style="enable-background:new 0 0 512 512;" xml:space="preserve">
<circle style="fill:#F1333F;" cx="256" cy="256" r="256"/>
<path style="fill:#AE283F;" d="M512,256c0-25.493-3.744-50.109-10.681-73.345l-51.503-51.503L256,251.402L111.38,440.349
	l55.822,55.822C194.867,506.402,224.778,512,256,512C397.384,512,512,397.384,512,256z"/>
<rect x="276.991" y="63.653" transform="matrix(-0.7071 -0.7071 0.7071 -0.7071 456.5199 530.1141)" style="fill:#FFFFFF;" width="122.119" height="213.711"/>
<g>
	
		<rect x="329.105" y="85.228" transform="matrix(-0.7071 -0.7071 0.7071 -0.7071 478.1113 582.2073)" style="fill:#E0E0E0;" width="61.058" height="213.711"/>
	
		<rect x="162.733" y="223.701" transform="matrix(0.7071 0.7071 -0.7071 0.7071 273.2269 -59.5764)" style="fill:#E0E0E0;" width="91.59" height="152.65"/>
</g>
<g>
	
		<rect x="201.823" y="239.893" transform="matrix(0.7071 0.7071 -0.7071 0.7071 289.4189 -66.2827)" style="fill:#C0C0C0;" width="45.793" height="152.65"/>
	
		<rect x="91.649" y="340.588" transform="matrix(0.7071 0.7071 -0.7071 0.7071 308.9993 26.7758)" style="fill:#C0C0C0;" width="61.058" height="91.59"/>
</g>
<rect x="117.702" y="351.368" transform="matrix(0.7071 0.7071 -0.7071 0.7071 319.7818 22.3056)" style="fill:#758F9B;" width="30.528" height="91.59"/>
<rect x="326.49" y="90.47" transform="matrix(-0.7071 -0.7071 0.7071 -0.7071 612.8834 465.3344)" style="fill:#E0E0E0;" width="152.65" height="30.53"/>
<rect x="391.624" y="117.465" transform="matrix(-0.7071 -0.7071 0.7071 -0.7071 639.8304 530.4865)" style="fill:#C0C0C0;" width="76.317" height="30.53"/>
<rect x="60.806" y="392.705" transform="matrix(-0.7071 -0.7071 0.7071 -0.7071 -116.7695 767.5725)" style="fill:#E0E0E0;" width="79.557" height="30.53"/>
<rect x="94.764" y="406.769" transform="matrix(0.7071 0.7071 -0.7071 0.7071 332.0056 42.536)" style="fill:#C0C0C0;" width="39.787" height="30.53"/>
<g>
</g>
<g>
</g>
<g>
</g>
<g>
</g>
<g>
</g>
<g>
</g>
<g>
</g>
<g>
</g>
<g>
</g>
<g>
</g>
<g>
</g>
<g>
</g>
<g>
</g>
<g>
</g>
<g>
</g>
</svg>
