<?xml version="1.0" encoding="iso-8859-1"?>
<!-- Generator: Adobe Illustrator 19.0.0, SVG Export Plug-In . SVG Version: 6.00 Build 0)  -->
<svg version="1.1" id="Layer_1" xmlns="http://www.w3.org/2000/svg" xmlns:xlink="http://www.w3.org/1999/xlink" x="0px" y="0px"
	 viewBox="0 0 512.001 512.001" style="enable-background:new 0 0 512.001 512.001;" xml:space="preserve">
<g>
	
		<ellipse transform="matrix(0.7071 -0.7071 0.7071 0.7071 -291.5895 179.1539)" style="fill:#4D7EB7;" cx="70.463" cy="441.557" rx="29.993" ry="79.981"/>
	<path style="fill:#FAAC18;" d="M91.671,420.353c31.235,31.235,47.06,66.053,35.348,77.766l28.278-28.278
		c2.601-2.599,3.844-6.342,3.858-10.929c0.064-16.071-14.911-42.538-39.207-66.837c-24.299-24.297-50.763-39.271-66.837-39.206
		c-4.587,0.016-8.327,1.259-10.93,3.858l-28.277,28.278C25.618,373.293,60.436,389.117,91.671,420.353z"/>
	<path style="fill:#BD2326;" d="M119.948,392.074c24.297,24.3,39.271,50.766,39.207,66.837L280.36,337.707
		c3.494-3.495,4.375-9.184,3.002-16.258c-2.927-15.158-16.174-36.682-36.138-56.646c-19.965-19.965-41.491-33.215-56.649-36.139
		c-7.073-1.376-12.763-0.493-16.258,2.999l-88.359,88.361l-32.846,32.844C69.185,352.803,95.65,367.779,119.948,392.074z"/>
	<path style="fill:#FAAC18;" d="M247.223,264.803c19.965,19.965,33.212,41.489,36.138,56.646l76.528-76.529
		c3.28-3.279,3.927-8.769,2.338-15.596c-3.064-13.17-14.458-31.321-31.332-48.195c-16.877-16.876-35.027-28.269-48.197-31.335
		c-6.825-1.587-12.314-0.939-15.596,2.339l-76.53,76.529C205.732,231.588,227.26,244.838,247.223,264.803z"/>
	<path style="fill:#F6BB59;" d="M330.896,181.129c16.874,16.874,28.267,35.024,31.332,48.195l30.725-30.724l37.355-37.354
		c3.784-3.781,3.481-10.99-0.077-19.806c-4.191-10.382-12.899-22.995-24.776-34.87c-11.876-11.878-24.492-20.586-34.873-24.776
		c-8.814-3.559-16.022-3.86-19.805-0.079l-68.078,68.08C295.869,152.861,314.019,164.253,330.896,181.129z"/>
	<path style="fill:#FAAC18;" d="M405.454,106.571c11.877,11.875,20.585,24.489,24.776,34.87l14.687-14.688l54.981-54.978
		c6.177-6.178-2.17-24.537-18.641-41.009c-16.472-16.471-34.831-24.815-41.009-18.64l-54.82,54.822L370.58,81.796
		C380.962,85.985,393.578,94.693,405.454,106.571z"/>
</g>
<g>
	<path style="fill:#000001;" d="M155.164,356.598c-3.882-3.855-10.153-3.877-14.06-0.027c-3.935,3.875-3.981,10.205-0.107,14.139
		c0.039,0.04,0.109,0.108,0.164,0.163c1.949,1.946,4.505,2.922,7.064,2.922c2.511,0,5.026-0.941,6.969-2.829
		c3.958-3.849,4.048-10.179,0.199-14.138C155.338,356.771,155.238,356.67,155.164,356.598z"/>
	<path style="fill:#000001;" d="M354.973,135.335c-4.08-3.647-10.346-3.337-14.045,0.714c-3.723,4.078-3.435,10.402,0.642,14.125
		c0.039,0.036,0.1,0.09,0.15,0.134c1.904,1.703,4.284,2.542,6.658,2.542c2.711,0,5.414-1.097,7.386-3.256
		c3.724-4.078,3.436-10.402-0.643-14.124C355.083,135.433,355.023,135.379,354.973,135.335z"/>
	<path style="fill:#000001;" d="M488.326,23.696C469.966,5.336,445.791-7.55,433.181,5.057L367.876,70.36
		c-13.42-3.563-20.747,0.866-24.169,4.286l-64.44,64.44c-9.593-0.911-15.591,2.334-19.235,5.979l-73.026,73.026
		c-9.8-0.655-15.971,2.715-19.76,6.504l-88.374,88.373c-0.021,0.021-0.04,0.04-0.061,0.061l-30.16,30.161
		c-6.68,0.956-10.984,3.912-13.542,6.469L6.834,377.935c-0.014,0.013-0.024,0.028-0.037,0.04
		c-6.226,6.256-11.329,18.741-0.426,42.728c7.16,15.753,19.879,33.203,35.812,49.136c25.992,25.992,54.272,42.139,73.804,42.139
		c9.347,0,15.002-3.692,18.1-6.79c0.006-0.007,0.014-0.014,0.02-0.02l28.258-28.257c2.95-2.951,5.655-7.3,6.534-13.602
		L287.43,344.777c3.788-3.788,7.159-9.961,6.505-19.763l73.025-73.025c3.645-3.645,6.889-9.643,5.978-19.237l26.954-26.952
		c0.021-0.021,0.042-0.042,0.064-0.064l37.424-37.422c3.421-3.421,7.85-10.75,4.285-24.17l65.301-65.301
		C519.575,66.234,506.689,42.06,488.326,23.696z M56.323,455.701c-14.281-14.28-25.557-29.646-31.749-43.27
		c-6.11-13.444-4.608-19.348-3.6-20.355c0.585-0.585,2.064-0.934,3.959-0.934c9.504,0,27.701,8.083,48.13,25.581
		c0.757,0.648,1.517,1.31,2.278,1.984c1.525,1.348,3.061,2.748,4.604,4.201c1.545,1.453,3.097,2.957,4.655,4.515
		c14.278,14.28,25.553,29.647,31.745,43.271c1.528,3.361,2.579,6.251,3.282,8.71c2.109,7.379,1.075,10.889,0.318,11.644
		c-0.585,0.585-2.066,0.935-3.96,0.935C104.726,491.983,81.251,480.63,56.323,455.701z M148.224,462.772l-9.771,9.771
		c-0.052-0.169-0.116-0.346-0.17-0.517c-0.163-0.51-0.33-1.023-0.509-1.546c-0.094-0.273-0.193-0.551-0.292-0.828
		c-0.175-0.493-0.357-0.991-0.548-1.495c-0.107-0.285-0.215-0.57-0.328-0.858c-0.21-0.539-0.432-1.087-0.659-1.639
		c-0.105-0.256-0.206-0.508-0.315-0.767c-0.344-0.813-0.701-1.635-1.083-2.475c-7.159-15.753-19.878-33.203-35.81-49.136
		c-1.118-1.118-2.24-2.21-3.365-3.291c-0.264-0.253-0.527-0.505-0.791-0.757c-1.113-1.058-2.227-2.102-3.344-3.123
		c-0.123-0.112-0.247-0.221-0.37-0.333c-1.029-0.936-2.06-1.853-3.091-2.755c-0.255-0.224-0.51-0.448-0.766-0.669
		c-1.113-0.967-2.229-1.916-3.344-2.843c-0.194-0.161-0.389-0.318-0.583-0.478c-0.99-0.817-1.981-1.619-2.972-2.404
		c-0.232-0.185-0.465-0.371-0.697-0.554c-1.113-0.876-2.227-1.731-3.337-2.565c-0.232-0.174-0.464-0.344-0.695-0.517
		c-0.992-0.737-1.981-1.459-2.969-2.163c-0.187-0.133-0.375-0.271-0.562-0.403c-1.111-0.785-2.219-1.545-3.321-2.285
		c-0.251-0.168-0.5-0.332-0.75-0.499c-1.023-0.679-2.045-1.342-3.06-1.982c-0.116-0.073-0.233-0.15-0.351-0.224
		c-1.102-0.69-2.198-1.352-3.289-1.996c-0.255-0.15-0.509-0.298-0.765-0.447c-2.204-1.281-4.384-2.465-6.536-3.551
		c-0.246-0.124-0.492-0.248-0.737-0.37c-1.062-0.526-2.118-1.034-3.162-1.51c-0.108-0.049-0.215-0.094-0.323-0.142
		c-0.965-0.436-1.921-0.846-2.87-1.238c-0.225-0.093-0.452-0.188-0.677-0.279c-1.018-0.411-2.027-0.799-3.024-1.159
		c-0.164-0.06-0.327-0.113-0.492-0.171c-0.887-0.313-1.765-0.604-2.634-0.876c-0.128-0.04-0.26-0.089-0.388-0.128l9.775-9.775
		c0.573-0.574,2.013-0.918,3.855-0.932c0.01,0,0.019-0.001,0.028-0.001c0.026,0,0.05-0.002,0.076-0.002
		c11.262,0,34.739,11.353,59.67,36.28c14.28,14.281,25.554,29.647,31.747,43.272C150.736,455.86,149.234,461.763,148.224,462.772z
		 M273.29,330.637L164.891,439.036c-0.614-1.578-1.296-3.204-2.064-4.894c-7.16-15.753-19.879-33.204-35.81-49.137
		c-18.144-18.142-37.4-31.478-54.019-37.884l15.206-15.206c9.414,4.46,19.593,10.874,30.347,19.137
		c1.816,1.395,3.958,2.07,6.084,2.07c2.999,0,5.968-1.345,7.936-3.907c3.363-4.379,2.54-10.656-1.838-14.019
		c-9.561-7.344-18.814-13.411-27.657-18.153l78.309-78.31c1.046-1.044,7.126-1.615,18.384,3.503
		c12.521,5.692,27.24,16.493,40.383,29.636c13.143,13.142,23.945,27.861,29.636,40.383
		C274.905,323.513,274.335,329.592,273.29,330.637z M352.774,237.897l-65.2,65.199c-6.811-14.603-18.589-30.671-33.283-45.364
		c-14.692-14.695-30.763-26.472-45.367-33.284l65.17-65.182c0.77-0.464,5.823-1.138,16.496,4.072
		c10.554,5.153,22.356,13.981,33.234,24.86c10.877,10.876,19.704,22.677,24.856,33.23
		C353.828,231.97,353.238,237.031,352.774,237.897z M422.966,154.45l-27.773,27.771c-6.505-10.513-13.551-19.416-18.937-25.649
		c-3.609-4.178-9.924-4.639-14.101-1.029c-4.179,3.61-4.64,9.924-1.029,14.101c5.56,6.436,13.065,15.996,19.486,27.158
		l-14.599,14.597c-6.161-12.164-15.994-25.284-28.051-37.339c-12.055-12.056-25.176-21.891-37.34-28.053l56.95-56.95
		c3.827-1.022,20.782,4.556,40.809,24.584C418.41,133.665,423.987,150.62,422.966,154.45z M432.806,124.725
		c-5.212-8.426-12.167-17.108-20.283-25.223c-8.116-8.117-16.799-15.073-25.225-20.283l59.148-59.148
		c3.872,0.139,15.141,5.162,27.744,17.765c12.604,12.604,17.626,23.872,17.765,27.744L432.806,124.725z"/>
</g>
<g>
</g>
<g>
</g>
<g>
</g>
<g>
</g>
<g>
</g>
<g>
</g>
<g>
</g>
<g>
</g>
<g>
</g>
<g>
</g>
<g>
</g>
<g>
</g>
<g>
</g>
<g>
</g>
<g>
</g>
</svg>
